<?xml version="1.0" encoding="UTF-8" standalone="no"?>
<!-- Created with Inkscape (http://www.inkscape.org/) -->

<svg
   xmlns:dc="http://purl.org/dc/elements/1.1/"
   xmlns:cc="http://creativecommons.org/ns#"
   xmlns:rdf="http://www.w3.org/1999/02/22-rdf-syntax-ns#"
   xmlns:svg="http://www.w3.org/2000/svg"
   xmlns="http://www.w3.org/2000/svg"
   xmlns:sodipodi="http://sodipodi.sourceforge.net/DTD/sodipodi-0.dtd"
   xmlns:inkscape="http://www.inkscape.org/namespaces/inkscape"
   width="959.45673"
   height="778.08331"
   viewBox="0 0 959.45673 778.08331"
   id="svg2"
   version="1.1"
   inkscape:version="0.91 r13725"
   sodipodi:docname="aggregit_logo.svg">
  <defs
     id="defs4" />
  <sodipodi:namedview
     id="base"
     pagecolor="#ffffff"
     bordercolor="#666666"
     borderopacity="1.0"
     inkscape:pageopacity="0.0"
     inkscape:pageshadow="2"
     inkscape:zoom="0.90509668"
     inkscape:cx="447.10068"
     inkscape:cy="279.92892"
     inkscape:document-units="px"
     inkscape:current-layer="layer1"
     showgrid="false"
     borderlayer="false"
     showborder="true"
     inkscape:showpageshadow="false"
     inkscape:window-width="1624"
     inkscape:window-height="1383"
     inkscape:window-x="915"
     inkscape:window-y="7"
     inkscape:window-maximized="0"
     showguides="false"
     inkscape:guide-bbox="true"
     units="px"
     inkscape:snap-bbox="true"
     inkscape:bbox-paths="true"
     inkscape:bbox-nodes="true"
     inkscape:snap-bbox-edge-midpoints="true"
     inkscape:snap-bbox-midpoints="true"
     inkscape:object-paths="true"
     inkscape:snap-intersection-paths="true"
     inkscape:object-nodes="true"
     inkscape:snap-smooth-nodes="true"
     inkscape:snap-midpoints="true"
     inkscape:snap-object-midpoints="true"
     inkscape:snap-center="true"
     fit-margin-top="5"
     fit-margin-right="5"
     fit-margin-bottom="5"
     fit-margin-left="5">
    <sodipodi:guide
       position="-32.275482,3254.9798"
       orientation="1,0"
       id="guide4174" />
    <sodipodi:guide
       position="991.72562,900.33327"
       orientation="1,0"
       id="guide4176" />
    <sodipodi:guide
       position="478.69718,901.02967"
       orientation="0,1"
       id="guide4178" />
    <sodipodi:guide
       position="-32.275482,-122.97032"
       orientation="0,1"
       id="guide4180" />
    <sodipodi:guide
       position="479.72843,901.65077"
       orientation="1,0"
       id="guide4186" />
    <sodipodi:guide
       position="-38.661541,389.01917"
       orientation="0,1"
       id="guide4188" />
    <sodipodi:guide
       position="-36.650706,133.02443"
       orientation="0,1"
       id="guide4281" />
    <sodipodi:guide
       position="-399.45517,645.02967"
       orientation="0,1"
       id="guide4283" />
  </sodipodi:namedview>
  <metadata
     id="metadata7">
    <rdf:RDF>
      <cc:Work
         rdf:about="">
        <dc:format>image/svg+xml</dc:format>
        <dc:type
           rdf:resource="http://purl.org/dc/dcmitype/StillImage" />
        <dc:title></dc:title>
      </cc:Work>
    </rdf:RDF>
  </metadata>
  <g
     inkscape:groupmode="layer"
     id="layer3"
     inkscape:label="Layer 3"
     style="display:inline;opacity:0.75"
     transform="translate(-32.275482,-122.94635)">
    <path
       style="opacity:0.75;fill:#2add79;fill-opacity:1;fill-rule:evenodd;stroke:#5bd390;stroke-width:1.33528996;stroke-linecap:butt;stroke-linejoin:miter;stroke-miterlimit:4;stroke-dasharray:none;stroke-opacity:1"
       d="m 232.35375,511.29495 69.68208,-268.31323 69.68118,268.31323 z"
       id="path4317"
       inkscape:connector-curvature="0" />
    <path
       inkscape:connector-curvature="0"
       id="path4319"
       d="M 371.76528,512.35372 301.89269,628.56193 232.02099,512.35372 Z"
       style="opacity:0.75;fill:#dd5f2a;fill-opacity:1;fill-rule:evenodd;stroke:#ce5f31;stroke-width:0.87996578;stroke-linecap:butt;stroke-linejoin:miter;stroke-miterlimit:4;stroke-dasharray:none;stroke-opacity:1" />
    <path
       inkscape:connector-curvature="0"
       id="path4344"
       d="M 311.99031,511.14802 381.56405,128.0888 451.13688,511.14802 Z"
       style="opacity:0.75;fill:#2add79;fill-opacity:1;fill-rule:evenodd;stroke:#5bd390;stroke-width:1.59422493;stroke-linecap:butt;stroke-linejoin:miter;stroke-miterlimit:4;stroke-dasharray:none;stroke-opacity:1" />
    <path
       style="opacity:0.75;fill:#dd5f2a;fill-opacity:1;fill-rule:evenodd;stroke:#ce5f31;stroke-width:0.71360987;stroke-linecap:butt;stroke-linejoin:miter;stroke-miterlimit:4;stroke-dasharray:none;stroke-opacity:1"
       d="m 510.82446,512.41005 -99.63513,53.59464 -99.63382,-53.59464 z"
       id="path4346"
       inkscape:connector-curvature="0" />
    <path
       style="opacity:0.75;fill:#2add79;fill-opacity:1;fill-rule:evenodd;stroke:#5bd390;stroke-width:1.03377426;stroke-linecap:butt;stroke-linejoin:miter;stroke-miterlimit:4;stroke-dasharray:none;stroke-opacity:1"
       d="m 371.48241,511.49361 69.86673,-160.39583 69.86583,160.39583 z"
       id="path4357"
       inkscape:connector-curvature="0" />
    <path
       inkscape:connector-curvature="0"
       id="path4359"
       d="M 791.69885,512.68109 722.0168,780.99431 652.33562,512.68109 Z"
       style="opacity:0.75;fill:#dd5f2a;fill-opacity:1;fill-rule:evenodd;stroke:#ce5f31;stroke-width:1.33528996;stroke-linecap:butt;stroke-linejoin:miter;stroke-miterlimit:4;stroke-dasharray:none;stroke-opacity:1" />
    <path
       style="opacity:0.75;fill:#2add79;fill-opacity:1;fill-rule:evenodd;stroke:#5bd390;stroke-width:0.87996578;stroke-linecap:butt;stroke-linejoin:miter;stroke-miterlimit:4;stroke-dasharray:none;stroke-opacity:1"
       d="M 652.28735,511.62231 722.15994,395.41409 792.0317,511.62231 Z"
       id="path4361"
       inkscape:connector-curvature="0" />
    <path
       style="opacity:0.75;fill:#dd5f2a;fill-opacity:1;fill-rule:evenodd;stroke:#ce5f31;stroke-width:1.59422493;stroke-linecap:butt;stroke-linejoin:miter;stroke-miterlimit:4;stroke-dasharray:none;stroke-opacity:1"
       d="M 712.06232,512.82801 642.48858,895.88723 572.91569,512.82801 Z"
       id="path4363"
       inkscape:connector-curvature="0" />
    <path
       inkscape:connector-curvature="0"
       id="path4365"
       d="m 513.22808,511.56599 99.63516,-53.59466 99.63388,53.59466 z"
       style="opacity:0.75;fill:#2add79;fill-opacity:1;fill-rule:evenodd;stroke:#5bd390;stroke-width:0.71360987;stroke-linecap:butt;stroke-linejoin:miter;stroke-miterlimit:4;stroke-dasharray:none;stroke-opacity:1" />
    <path
       inkscape:connector-curvature="0"
       id="path4367"
       d="M 652.61445,512.52783 582.70349,673.09404 512.79339,512.52783 Z"
       style="opacity:0.75;fill:#dd5f2a;fill-opacity:1;fill-rule:evenodd;stroke:#ce5f31;stroke-width:1.03465068;stroke-linecap:butt;stroke-linejoin:miter;stroke-miterlimit:4;stroke-dasharray:none;stroke-opacity:1" />
    <path
       inkscape:connector-curvature="0"
       id="path4389"
       d="M 372.04853,512.51887 341.96025,774.0211 311.87238,512.51887 Z"
       style="opacity:0.75;fill:#dd5f2a;fill-opacity:1;fill-rule:evenodd;stroke:#ce5f31;stroke-width:0.86622405;stroke-linecap:butt;stroke-linejoin:miter;stroke-miterlimit:4;stroke-dasharray:none;stroke-opacity:1" />
    <path
       style="opacity:0.75;fill:#2add79;fill-opacity:1;fill-rule:evenodd;stroke:#5bd390;stroke-width:0.86622405;stroke-linecap:butt;stroke-linejoin:miter;stroke-miterlimit:4;stroke-dasharray:none;stroke-opacity:1"
       d="m 652.32122,511.56599 30.08826,-261.50225 30.08788,261.50225 z"
       id="path4391"
       inkscape:connector-curvature="0" />
  </g>
  <g
     inkscape:groupmode="layer"
     id="layer2"
     inkscape:label="Layer 2"
     style="display:inline;opacity:0.75"
     transform="translate(-32.275482,-122.94635)">
    <circle
       cy="512.0105"
       cx="-512.00391"
       id="circle4266"
       style="opacity:0.75;fill:#528aaf;fill-opacity:1;stroke:#5282a1;stroke-width:9.93128872;stroke-linecap:round;stroke-linejoin:round;stroke-miterlimit:4;stroke-dasharray:none;stroke-dashoffset:0;stroke-opacity:1"
       transform="scale(-1,1)"
       r="141.02429" />
    <circle
       style="opacity:0.75;fill:#528aaf;fill-opacity:1;stroke:#5282a1;stroke-width:6.21086073;stroke-linecap:round;stroke-linejoin:round;stroke-miterlimit:4;stroke-dasharray:none;stroke-dashoffset:0;stroke-opacity:1"
       id="circle4279"
       cx="-274.71432"
       cy="658.00037"
       transform="scale(-1,1)"
       r="88.194221" />
    <circle
       cy="475.40109"
       cx="-183.41463"
       id="circle4285"
       style="opacity:0.75;fill:#528aaf;fill-opacity:1;stroke:#5282a1;stroke-width:6.21086073;stroke-linecap:round;stroke-linejoin:round;stroke-miterlimit:4;stroke-dasharray:none;stroke-dashoffset:0;stroke-opacity:1"
       transform="scale(-1,1)"
       r="88.194221" />
    <circle
       style="opacity:0.75;fill:#528aaf;fill-opacity:1;stroke:#5282a1;stroke-width:6.21086073;stroke-linecap:round;stroke-linejoin:round;stroke-miterlimit:4;stroke-dasharray:none;stroke-dashoffset:0;stroke-opacity:1"
       id="circle4287"
       cx="-749.29352"
       cy="366.02054"
       transform="scale(-1,1)"
       r="88.194221" />
    <circle
       cy="548.61987"
       cx="-840.59308"
       id="circle4289"
       style="opacity:0.75;fill:#528aaf;fill-opacity:1;stroke:#5282a1;stroke-width:6.21086073;stroke-linecap:round;stroke-linejoin:round;stroke-miterlimit:4;stroke-dasharray:none;stroke-dashoffset:0;stroke-opacity:1"
       transform="scale(-1,1)"
       r="88.194221" />
    <circle
       style="opacity:0.75;fill:#528aaf;fill-opacity:1;stroke:#5282a1;stroke-width:3.73057532;stroke-linecap:round;stroke-linejoin:round;stroke-miterlimit:4;stroke-dasharray:none;stroke-dashoffset:0;stroke-opacity:1"
       id="circle4291"
       cx="-92.114937"
       cy="621.54016"
       transform="scale(-1,1)"
       r="52.974167" />
    <circle
       transform="scale(-1,1)"
       cy="402.48074"
       cx="-931.89276"
       id="circle4321"
       style="opacity:0.75;fill:#528aaf;fill-opacity:1;stroke:#5282a1;stroke-width:3.73057532;stroke-linecap:round;stroke-linejoin:round;stroke-miterlimit:4;stroke-dasharray:none;stroke-dashoffset:0;stroke-opacity:1"
       r="52.974167" />
  </g>
  <g
     inkscape:label="Layer 1"
     inkscape:groupmode="layer"
     id="layer1"
     transform="translate(-32.275482,-151.30847)"
     style="display:inline">
    <g
       style="font-style:normal;font-variant:normal;font-weight:normal;font-stretch:normal;font-size:225px;line-height:125%;font-family:'Ubuntu Mono';-inkscape-font-specification:'Ubuntu Mono, Normal';text-align:start;letter-spacing:0px;word-spacing:0px;writing-mode:lr-tb;text-anchor:start;fill:#1d4369;fill-opacity:1;stroke:none;stroke-width:1px;stroke-linecap:butt;stroke-linejoin:miter;stroke-opacity:1"
       id="text4182">
      <path
         d="m 118.47891,583.5726 q 6.975,0 12.375,-0.45 5.625,-0.45 9.225,-1.125 l 0,-31.05 q -3.6,-1.125 -8.775,-1.8 -4.95,-0.675 -10.575,-0.675 -5.175,0 -10.125,0.9 -4.95,0.675 -8.775,2.7 -3.825001,2.025 -6.300001,5.4 -2.475,3.15 -2.475,8.1 0,10.125 6.75,14.175 6.975001,3.825 18.675001,3.825 z m -1.8,-93.6 q 11.7,0 19.575,2.925 8.1,2.925 13.05,8.1 4.95,5.175 6.975,12.6 2.025,7.425 2.025,16.2 l 0,65.25 q -6.525,1.125 -17.325,2.7 -10.575,1.575 -21.825,1.575 -8.55,0 -16.65,-1.575 -8.100001,-1.35 -14.400001,-4.95 -6.3,-3.825 -10.125,-10.35 -3.825,-6.525 -3.825,-16.65 0,-9 3.825,-15.075 4.05,-6.3 10.125,-10.125 6.3,-3.825 14.175001,-5.4 8.1,-1.8 16.2,-1.8 11.025,0 21.6,2.475 l 0,-5.175 q 0,-4.725 -1.125,-9 -0.9,-4.5 -3.825,-8.1 -2.7,-3.6 -7.65,-5.625 -4.725,-2.25 -12.375,-2.25 -9.675,0 -16.875001,1.35 -7.2,1.35 -11.025,2.7 l -2.25,-15.3 q 3.825,-1.8 12.6,-3.15 9.000001,-1.35 19.125001,-1.35 z"
         style="font-style:normal;font-variant:normal;font-weight:normal;font-stretch:normal;font-size:225px;line-height:125%;font-family:'Ubuntu Mono';-inkscape-font-specification:'Ubuntu Mono, Normal';text-align:start;writing-mode:lr-tb;text-anchor:start;fill:#1d4369;fill-opacity:1"
         id="path4185" />
      <path
         d="m 251.45391,587.1726 q -3.15,1.8 -9.675,3.825 -6.525,2.025 -15.075,2.025 -9.225,0 -17.325,-2.925 -7.875,-3.15 -13.95,-9.225 -5.85,-6.3 -9.45,-15.75 -3.375,-9.675 -3.375,-22.725 0,-11.475 3.15,-20.925 3.375,-9.675 9.45,-16.65 6.3,-6.975 15.3,-10.8 9,-4.05 20.475,-4.05 13.5,0 22.95,2.025 9.675,1.8 16.2,3.6 l 0,93.15 q 0,24.3 -12.375,35.1 -12.15,10.8 -36.9,10.8 -10.125,0 -18.45,-1.575 -8.1,-1.575 -14.4,-3.825 l 3.375,-16.425 q 5.85,2.475 13.275,4.05 7.65,1.575 16.65,1.575 16.2,0 23.175,-6.525 6.975,-6.525 6.975,-21.15 l 0,-3.6 z m 0,-78.3 q -2.7,-0.9 -7.425,-1.575 -4.725,-0.9 -12.825,-0.9 -14.4,0 -22.05,9.9 -7.425,9.9 -7.425,26.325 0,9 2.025,15.525 2.25,6.3 5.85,10.575 3.825,4.05 8.55,6.075 4.725,1.8 10.125,1.8 6.975,0 13.05,-2.025 6.3,-2.025 10.125,-4.725 l 0,-60.975 z"
         style="font-style:normal;font-variant:normal;font-weight:normal;font-stretch:normal;font-size:225px;line-height:125%;font-family:'Ubuntu Mono';-inkscape-font-specification:'Ubuntu Mono, Normal';text-align:start;writing-mode:lr-tb;text-anchor:start;fill:#1d4369;fill-opacity:1"
         id="path4187" />
      <path
         d="m 363.95391,587.1726 q -3.15,1.8 -9.675,3.825 -6.525,2.025 -15.075,2.025 -9.225,0 -17.325,-2.925 -7.875,-3.15 -13.95,-9.225 -5.85,-6.3 -9.45,-15.75 -3.375,-9.675 -3.375,-22.725 0,-11.475 3.15,-20.925 3.375,-9.675 9.45,-16.65 6.3,-6.975 15.3,-10.8 9,-4.05 20.475,-4.05 13.5,0 22.95,2.025 9.675,1.8 16.2,3.6 l 0,93.15 q 0,24.3 -12.375,35.1 -12.15,10.8 -36.9,10.8 -10.125,0 -18.45,-1.575 -8.1,-1.575 -14.4,-3.825 l 3.375,-16.425 q 5.85,2.475 13.275,4.05 7.65,1.575 16.65,1.575 16.2,0 23.175,-6.525 6.975,-6.525 6.975,-21.15 l 0,-3.6 z m 0,-78.3 q -2.7,-0.9 -7.425,-1.575 -4.725,-0.9 -12.825,-0.9 -14.4,0 -22.05,9.9 -7.425,9.9 -7.425,26.325 0,9 2.025,15.525 2.25,6.3 5.85,10.575 3.825,4.05 8.55,6.075 4.725,1.8 10.125,1.8 6.975,0 13.05,-2.025 6.3,-2.025 10.125,-4.725 l 0,-60.975 z"
         style="font-style:normal;font-variant:normal;font-weight:normal;font-stretch:normal;font-size:225px;line-height:125%;font-family:'Ubuntu Mono';-inkscape-font-specification:'Ubuntu Mono, Normal';text-align:start;writing-mode:lr-tb;text-anchor:start;fill:#1d4369;fill-opacity:1"
         id="path4189" />
      <path
         d="m 422.67891,596.8476 0,-98.775 q 22.95,-7.875 46.35,-7.875 7.2,0 13.725,0.675 6.525,0.45 14.4,2.25 l -3.375,16.425 q -7.2,-2.025 -12.825,-2.475 -5.4,-0.675 -11.925,-0.675 -13.725,0 -27.9,3.825 l 0,86.625 -18.45,0 z"
         style="font-style:normal;font-variant:normal;font-weight:normal;font-stretch:normal;font-size:225px;line-height:125%;font-family:'Ubuntu Mono';-inkscape-font-specification:'Ubuntu Mono, Normal';text-align:start;writing-mode:lr-tb;text-anchor:start;fill:#1d4369;fill-opacity:1"
         id="path4191" />
      <path
         d="m 569.37891,489.9726 q 21.15,0 32.625,13.275 11.475,13.05 11.475,39.825 l 0,6.525 -74.7,0 q 1.125,16.2 10.575,24.75 9.675,8.325 27,8.325 9.9,0 16.875,-1.575 6.975,-1.575 10.575,-3.375 l 2.475,15.75 q -3.375,1.8 -12.15,3.825 -8.775,2.025 -19.8,2.025 -13.5,0 -23.85,-4.05 -10.125,-4.275 -16.875,-11.475 -6.75,-7.2 -10.125,-17.1 -3.375,-10.125 -3.375,-21.825 0,-13.95 4.275,-24.3 4.275,-10.35 11.25,-17.1 6.975,-6.75 15.75,-10.125 8.775,-3.375 18,-3.375 z m 25.2,44.55 q 0,-13.275 -6.975,-20.925 -6.975,-7.875 -18.45,-7.875 -6.525,0 -11.925,2.475 -5.175,2.475 -9,6.525 -3.825,4.05 -6.075,9.225 -2.25,5.175 -2.925,10.575 l 55.35,0 z"
         style="font-style:normal;font-variant:normal;font-weight:normal;font-stretch:normal;font-size:225px;line-height:125%;font-family:'Ubuntu Mono';-inkscape-font-specification:'Ubuntu Mono, Normal';text-align:start;writing-mode:lr-tb;text-anchor:start;fill:#1d4369;fill-opacity:1"
         id="path4193" />
    </g>
    <g
       style="font-style:normal;font-variant:normal;font-weight:normal;font-stretch:normal;font-size:225px;line-height:125%;font-family:'Ubuntu Mono';-inkscape-font-specification:'Ubuntu Mono, Normal';text-align:start;letter-spacing:0px;word-spacing:0px;writing-mode:lr-tb;text-anchor:start;fill:#1d694f;fill-opacity:1;stroke:none;stroke-width:1px;stroke-linecap:butt;stroke-linejoin:miter;stroke-opacity:1"
       id="text4185">
      <path
         d="m 701.92385,587.84319 q -3.15,1.8 -9.675,3.825 -6.525,2.025 -15.075,2.025 -9.225,0 -17.325,-2.925 -7.875,-3.15 -13.95,-9.225 -5.85,-6.3 -9.45,-15.75 -3.375,-9.675 -3.375,-22.725 0,-11.475 3.15,-20.925 3.375,-9.675 9.45,-16.65 6.3,-6.975 15.3,-10.8 9,-4.05 20.475,-4.05 13.5,0 22.95,2.025 9.675,1.8 16.2,3.6 l 0,93.15 q 0,24.3 -12.375,35.1 -12.15,10.8 -36.9,10.8 -10.125,0 -18.45,-1.575 -8.1,-1.575 -14.4,-3.825 l 3.375,-16.425 q 5.85,2.475 13.275,4.05 7.65,1.575 16.65,1.575 16.2,0 23.175,-6.525 6.975,-6.525 6.975,-21.15 l 0,-3.6 z m 0,-78.3 q -2.7,-0.9 -7.425,-1.575 -4.725,-0.9 -12.825,-0.9 -14.4,0 -22.05,9.9 -7.425,9.9 -7.425,26.325 0,9 2.025,15.525 2.25,6.3 5.85,10.575 3.825,4.05 8.55,6.075 4.725,1.8 10.125,1.8 6.975,0 13.05,-2.025 6.3,-2.025 10.125,-4.725 l 0,-60.975 z"
         style="font-style:normal;font-variant:normal;font-weight:normal;font-stretch:normal;font-size:225px;line-height:125%;font-family:'Ubuntu Mono';-inkscape-font-specification:'Ubuntu Mono, Normal';text-align:start;writing-mode:lr-tb;text-anchor:start;fill:#1d694f;fill-opacity:1"
         id="path4196" />
      <path
         d="m 783.59885,476.91819 q -5.85,0 -10.125,-4.05 -4.275,-4.05 -4.275,-11.025 0,-6.975 4.275,-11.025 4.275,-4.05 10.125,-4.05 6.075,0 10.125,4.05 4.275,4.05 4.275,11.025 0,6.975 -4.275,11.025 -4.05,4.05 -10.125,4.05 z m -4.725,31.725 -30.15,0 0,-15.525 48.6,0 0,64.125 q 0,15.525 4.275,20.925 4.275,5.175 12.825,5.175 6.525,0 11.925,-1.575 5.625,-1.575 8.775,-3.375 l 2.7,15.75 q -1.35,0.675 -3.825,1.8 -2.475,0.9 -5.85,1.8 -3.15,0.9 -7.2,1.575 -3.825,0.675 -8.1,0.675 -9.9,0 -16.425,-2.7 -6.525,-2.7 -10.575,-8.1 -3.825,-5.4 -5.4,-13.275 -1.575,-8.1 -1.575,-18.675 l 0,-48.6 z"
         style="font-style:normal;font-variant:normal;font-weight:normal;font-stretch:normal;font-size:225px;line-height:125%;font-family:'Ubuntu Mono';-inkscape-font-specification:'Ubuntu Mono, Normal';text-align:start;writing-mode:lr-tb;text-anchor:start;fill:#1d694f;fill-opacity:1"
         id="path4198" />
      <path
         d="m 903.74885,493.11819 44.1,0 0,15.525 -44.1,0 0,48.6 q 0,7.875 1.125,12.825 1.125,4.95 3.6,8.1 2.7,2.925 6.75,4.05 4.05,1.125 9.9,1.125 8.1,0 13.05,-1.35 4.95,-1.35 9.45,-3.6 l 2.7,15.75 q -3.15,1.35 -10.125,3.6 -6.75,2.25 -16.875,2.25 -11.7,0 -19.125,-2.7 -7.425,-2.7 -11.7,-8.1 -4.05,-5.4 -5.625,-13.275 -1.575,-8.1 -1.575,-18.675 l 0,-48.6 -22.05,0 0,-15.525 22.05,0 0,-29.25 18.45,-3.15 0,32.4 z"
         style="font-style:normal;font-variant:normal;font-weight:normal;font-stretch:normal;font-size:225px;line-height:125%;font-family:'Ubuntu Mono';-inkscape-font-specification:'Ubuntu Mono, Normal';text-align:start;writing-mode:lr-tb;text-anchor:start;fill:#1d694f;fill-opacity:1"
         id="path4200" />
    </g>
  </g>
</svg>
